<svg xmlns="http://www.w3.org/2000/svg" width="210" height="151" viewBox="0 0 210 151">
  <g fill="none" fill-rule="evenodd" transform="translate(1 1)">
    <path fill="#000" d="M98.9554,132.183 C95.1894,132.183 91.7064,132.278 88.2364,132.104 C87.5294,132.069 86.6244,131.16 86.2284,130.428 C85.2984,128.707 84.6904,128.018 83.6234,126.542 C82.7034,125.269 81.7894,124.537 80.6714,123.641 C78.1014,121.582 75.6494,120.679 74.1974,120.157 C71.5044,119.191 68.7314,118.683 65.6464,118.558 C62.6684,118.436 60.4824,118.796 57.8944,119.217 C54.7074,119.735 52.3874,120.397 49.3494,121.274 C48.2694,121.585 47.5874,121.799 40.8734,124.021 C33.3364,126.516 33.5344,126.466 32.6674,126.725 C29.3024,127.728 27.9854,128.084 24.8364,129.109 C23.5534,129.527 22.2854,129.983 21.0464,130.517 C19.3134,131.264 17.1464,132.03 14.5944,132.574 C11.3774,133.26 8.5384,133.383 6.3334,133.315 C7.7074,132.889 9.9084,132.179 12.5824,131.197 C14.9764,130.317 16.8924,129.494 19.6204,128.34 C23.4664,126.715 24.0364,126.384 26.4574,125.477 C27.7114,125.008 28.9464,124.577 30.7114,123.96 C33.3564,123.037 33.9724,122.859 35.6794,122.219 C37.3704,121.584 38.6574,121.05 39.4694,120.712 C41.6504,119.804 42.0104,119.583 44.6484,118.461 C46.4094,117.713 47.7484,117.173 48.1704,117.004 C49.6774,116.399 51.5654,115.642 53.7184,114.893 C55.6684,114.214 57.7514,113.49 60.5084,112.853 C62.3954,112.418 64.8274,111.869 68.0884,111.708 C69.8634,111.62 72.6424,111.61 75.9914,112.153 C78.2984,112.527 81.3624,113.047 84.9654,114.797 C88.5404,116.533 90.8044,118.584 91.3844,119.122 C92.1004,119.787 94.1594,121.78 96.0294,124.958 C97.6674,127.743 98.5054,130.328 98.9554,132.183"/>
    <path stroke="#000" d="M98.9554,132.183 C95.1894,132.183 91.7064,132.278 88.2364,132.104 C87.5294,132.069 86.6244,131.16 86.2284,130.428 C85.2984,128.707 84.6904,128.018 83.6234,126.542 C82.7034,125.269 81.7894,124.537 80.6714,123.641 C78.1014,121.582 75.6494,120.679 74.1974,120.157 C71.5044,119.191 68.7314,118.683 65.6464,118.558 C62.6684,118.436 60.4824,118.796 57.8944,119.217 C54.7074,119.735 52.3874,120.397 49.3494,121.274 C48.2694,121.585 47.5874,121.799 40.8734,124.021 C33.3364,126.516 33.5344,126.466 32.6674,126.725 C29.3024,127.728 27.9854,128.084 24.8364,129.109 C23.5534,129.527 22.2854,129.983 21.0464,130.517 C19.3134,131.264 17.1464,132.03 14.5944,132.574 C11.3774,133.26 8.5384,133.383 6.3334,133.315 C7.7074,132.889 9.9084,132.179 12.5824,131.197 C14.9764,130.317 16.8924,129.494 19.6204,128.34 C23.4664,126.715 24.0364,126.384 26.4574,125.477 C27.7114,125.008 28.9464,124.577 30.7114,123.96 C33.3564,123.037 33.9724,122.859 35.6794,122.219 C37.3704,121.584 38.6574,121.05 39.4694,120.712 C41.6504,119.804 42.0104,119.583 44.6484,118.461 C46.4094,117.713 47.7484,117.173 48.1704,117.004 C49.6774,116.399 51.5654,115.642 53.7184,114.893 C55.6684,114.214 57.7514,113.49 60.5084,112.853 C62.3954,112.418 64.8274,111.869 68.0884,111.708 C69.8634,111.62 72.6424,111.61 75.9914,112.153 C78.2984,112.527 81.3624,113.047 84.9654,114.797 C88.5404,116.533 90.8044,118.584 91.3844,119.122 C92.1004,119.787 94.1594,121.78 96.0294,124.958 C97.6674,127.743 98.5054,130.328 98.9554,132.183 Z"/>
    <path fill="#000" d="M22.9388,133.4008 C28.5948,130.7498 45.2108,123.3368 60.6078,122.2228 C66.1358,121.8218 70.3278,122.3188 74.3838,124.2198 C79.3368,126.5408 82.3428,130.1128 83.8568,132.2348 C82.8178,132.2828 81.6188,132.3178 80.2878,132.3208 C75.8648,132.3338 75.1478,131.9838 74.6758,131.6518 C73.8338,131.0608 73.8408,130.5768 72.4898,129.6118 C71.8238,129.1368 71.1848,128.7988 70.4318,128.4678 C69.6748,128.1338 67.0168,127.0158 64.2358,126.5778 C60.6048,126.0048 53.9268,126.1438 45.9648,128.3728 C40.1818,129.9928 35.1078,131.7248 35.1078,131.7248 C33.7808,132.1778 32.4058,132.6658 30.4438,133.0368 C27.3538,133.6218 24.7208,133.5578 22.9388,133.4008"/>
    <path stroke="#000" d="M22.9388,133.4008 C28.5948,130.7498 45.2108,123.3368 60.6078,122.2228 C66.1358,121.8218 70.3278,122.3188 74.3838,124.2198 C79.3368,126.5408 82.3428,130.1128 83.8568,132.2348 C82.8178,132.2828 81.6188,132.3178 80.2878,132.3208 C75.8648,132.3338 75.1478,131.9838 74.6758,131.6518 C73.8338,131.0608 73.8408,130.5768 72.4898,129.6118 C71.8238,129.1368 71.1848,128.7988 70.4318,128.4678 C69.6748,128.1338 67.0168,127.0158 64.2358,126.5778 C60.6048,126.0048 53.9268,126.1438 45.9648,128.3728 C40.1818,129.9928 35.1078,131.7248 35.1078,131.7248 C33.7808,132.1778 32.4058,132.6658 30.4438,133.0368 C27.3538,133.6218 24.7208,133.5578 22.9388,133.4008 Z"/>
    <path fill="#000" d="M105.4408,99.1908 C104.8578,97.6008 104.4518,96.9818 104.4228,96.3458 C103.8448,83.5308 107.1408,72.2968 117.6768,64.0228 C123.9258,59.1148 130.2068,54.2428 136.3328,49.1848 C138.4868,47.4058 140.2238,45.1218 142.3888,42.8168 C144.3198,46.2688 145.0318,49.6808 144.1088,53.2848 C141.2018,64.6458 134.0908,72.8308 124.4158,79.0458 C120.4488,81.5938 116.2118,83.8428 112.6758,86.8978 C110.3498,88.9078 109.0028,92.0798 107.3288,94.7998 C106.6638,95.8818 106.3018,97.1508 105.4408,99.1908"/>
    <path stroke="#000" d="M105.4408,99.1908 C104.8578,97.6008 104.4518,96.9818 104.4228,96.3458 C103.8448,83.5308 107.1408,72.2968 117.6768,64.0228 C123.9258,59.1148 130.2068,54.2428 136.3328,49.1848 C138.4868,47.4058 140.2238,45.1218 142.3888,42.8168 C144.3198,46.2688 145.0318,49.6808 144.1088,53.2848 C141.2018,64.6458 134.0908,72.8308 124.4158,79.0458 C120.4488,81.5938 116.2118,83.8428 112.6758,86.8978 C110.3498,88.9078 109.0028,92.0798 107.3288,94.7998 C106.6638,95.8818 106.3018,97.1508 105.4408,99.1908 Z"/>
    <path fill="#000" d="M144.3705,2.1605 C153.7035,21.1885 150.5085,39.4285 121.2095,56.3825 C118.4475,49.3635 119.8115,42.7475 123.6595,36.8185 C126.5495,32.3655 130.1185,28.2225 133.9635,24.5395 C140.0165,18.7395 143.7885,12.1115 144.0235,3.6575 C144.0355,3.2375 144.2125,2.8215 144.3705,2.1605"/>
    <path stroke="#000" d="M144.3705,2.1605 C153.7035,21.1885 150.5085,39.4285 121.2095,56.3825 C118.4475,49.3635 119.8115,42.7475 123.6595,36.8185 C126.5495,32.3655 130.1185,28.2225 133.9635,24.5395 C140.0165,18.7395 143.7885,12.1115 144.0235,3.6575 C144.0355,3.2375 144.2125,2.8215 144.3705,2.1605 Z"/>
    <path fill="#000" d="M146.8324,49.5365 C145.9264,46.4015 145.0964,43.8125 144.4684,41.1765 C144.2964,40.4535 144.4954,39.4275 144.9174,38.8095 C152.3474,27.9215 151.3644,16.5135 147.1424,4.8755 C146.6424,3.4975 146.2274,2.0895 145.5784,0.0985 C156.7984,6.6855 161.5984,16.4635 161.4114,28.2925 C161.2584,38.0095 154.1654,43.8465 146.8324,49.5365"/>
    <path stroke="#000" d="M146.8324,49.5365 C145.9264,46.4015 145.0964,43.8125 144.4684,41.1765 C144.2964,40.4535 144.4954,39.4275 144.9174,38.8095 C152.3474,27.9215 151.3644,16.5135 147.1424,4.8755 C146.6424,3.4975 146.2274,2.0895 145.5784,0.0985 C156.7984,6.6855 161.5984,16.4635 161.4114,28.2925 C161.2584,38.0095 154.1654,43.8465 146.8324,49.5365 Z"/>
    <path fill="#000" d="M101.87,96.9691 C98.238,90.6381 96.956,83.5831 97.484,76.2681 C98.408,63.4731 104.796,53.0551 117.465,48.8911 C120.19,54.6521 119.657,58.8591 115.258,63.0021 C105.893,71.8231 102.373,82.7671 103.091,95.3441 C103.117,95.7961 103.094,96.2511 103.094,96.7051 C102.686,96.7931 102.278,96.8811 101.87,96.9691"/>
    <path stroke="#000" d="M101.87,96.9691 C98.238,90.6381 96.956,83.5831 97.484,76.2681 C98.408,63.4731 104.796,53.0551 117.465,48.8911 C120.19,54.6521 119.657,58.8591 115.258,63.0021 C105.893,71.8231 102.373,82.7671 103.091,95.3441 C103.117,95.7961 103.094,96.2511 103.094,96.7051 C102.686,96.7931 102.278,96.8811 101.87,96.9691 Z"/>
    <path fill="#000" d="M103.6073,103.307 C101.9253,103.221 100.2763,101.869 100.2383,100.051 C100.1993,98.16 101.9203,96.688 103.7073,96.646 C105.5883,96.602 107.4173,98.147 107.3543,100.095 C107.2903,102.01 105.4283,103.401 103.6073,103.307"/>
    <path stroke="#000" d="M103.6073,103.307 C101.9253,103.221 100.2763,101.869 100.2383,100.051 C100.1993,98.16 101.9203,96.688 103.7073,96.646 C105.5883,96.602 107.4173,98.147 107.3543,100.095 C107.2903,102.01 105.4283,103.401 103.6073,103.307 Z"/>
    <polygon fill="#000" points="109.029 115.001 105.436 103.311 101.703 103.311 98.565 115.001 103.22 122.661"/>
    <polygon stroke="#000" points="109.029 115.001 105.436 103.311 101.703 103.311 98.565 115.001 103.22 122.661"/>
    <path fill="#000" d="M102.5789,148.6141 C102.6709,144.3081 102.7629,140.0031 102.8549,135.6971 C95.5269,135.7101 85.5759,135.7231 73.7609,135.7221 C73.7609,135.7221 55.5949,135.7661 32.9069,135.6331 C18.0259,135.5461 3.1979,135.3771 3.1979,135.3771 C3.1599,135.3771 2.5939,135.3701 2.5559,135.3701 C2.2769,135.4341 2.0589,135.5311 1.9069,135.6121 C1.7919,135.6731 1.3599,135.9151 0.9919,136.4211 C0.9129,136.5291 0.7769,136.7191 0.6649,137.0041 C0.5029,137.4221 0.4979,137.7801 0.4999,137.9191 C0.5019,137.9971 0.5129,138.3281 0.6629,138.7311 C0.7239,138.8941 0.9529,139.4881 1.5259,139.9191 C2.0869,140.3431 2.7169,140.4121 3.7859,140.5301 C3.7859,140.5301 3.7869,140.5301 3.7899,140.5301 C3.7899,140.5301 3.9439,140.5451 4.0969,140.5591 C4.3309,140.5811 86.0339,141.0751 89.6229,140.6721 C89.7969,140.6521 90.5669,140.5431 91.4349,140.8731 C91.4349,140.8731 91.8049,141.0141 92.1479,141.2441 C93.6169,142.2281 94.1869,145.6191 96.3689,147.0551 C97.5379,147.8241 98.8849,148.1331 100.4739,148.4061 C101.3249,148.5531 102.0509,148.6001 102.5789,148.6141"/>
    <path stroke="#000" d="M102.5789,148.6141 C102.6709,144.3081 102.7629,140.0031 102.8549,135.6971 C95.5269,135.7101 85.5759,135.7231 73.7609,135.7221 C73.7609,135.7221 55.5949,135.7661 32.9069,135.6331 C18.0259,135.5461 3.1979,135.3771 3.1979,135.3771 C3.1599,135.3771 2.5939,135.3701 2.5559,135.3701 C2.2769,135.4341 2.0589,135.5311 1.9069,135.6121 C1.7919,135.6731 1.3599,135.9151 0.9919,136.4211 C0.9129,136.5291 0.7769,136.7191 0.6649,137.0041 C0.5029,137.4221 0.4979,137.7801 0.4999,137.9191 C0.5019,137.9971 0.5129,138.3281 0.6629,138.7311 C0.7239,138.8941 0.9529,139.4881 1.5259,139.9191 C2.0869,140.3431 2.7169,140.4121 3.7859,140.5301 C3.7859,140.5301 3.7869,140.5301 3.7899,140.5301 C3.7899,140.5301 3.9439,140.5451 4.0969,140.5591 C4.3309,140.5811 86.0339,141.0751 89.6229,140.6721 C89.7969,140.6521 90.5669,140.5431 91.4349,140.8731 C91.4349,140.8731 91.8049,141.0141 92.1479,141.2441 C93.6169,142.2281 94.1869,145.6191 96.3689,147.0551 C97.5379,147.8241 98.8849,148.1331 100.4739,148.4061 C101.3249,148.5531 102.0509,148.6001 102.5789,148.6141 Z"/>
    <path fill="#000" d="M109.4525,132.0336 C113.2185,132.0566 116.7005,132.1736 120.1715,132.0206 C120.8795,131.9906 121.7885,131.0806 122.1885,130.3466 C123.1305,128.6216 123.7425,127.9316 124.8185,126.4536 C125.7475,125.1776 126.6655,124.4466 127.7895,123.5516 C130.3715,121.4956 132.8295,120.6016 134.2855,120.0866 C136.9825,119.1306 139.7605,118.6376 142.8455,118.5296 C145.8245,118.4256 148.0085,118.8026 150.5935,119.2416 C153.7765,119.7826 156.0935,120.4626 159.1255,121.3646 C160.2025,121.6846 160.8845,121.9036 167.5845,124.1816 C175.1055,126.7386 174.9075,126.6866 175.7725,126.9516 C179.1325,127.9826 180.4465,128.3486 183.5885,129.4006 C184.8685,129.8286 186.1345,130.2956 187.3705,130.8406 C189.0985,131.6026 191.2605,132.3866 193.8085,132.9496 C197.0215,133.6596 199.8595,133.8016 202.0655,133.7466 C200.6945,133.3086 198.4975,132.5816 195.8295,131.5766 C193.4405,130.6766 191.5305,129.8366 188.8095,128.6586 C184.9735,126.9986 184.4065,126.6626 181.9905,125.7356 C180.7395,125.2556 179.5075,124.8136 177.7455,124.1826 C175.1065,123.2376 174.4915,123.0546 172.7895,122.3996 C171.1015,121.7506 169.8175,121.2046 169.0085,120.8596 C166.8335,119.9326 166.4745,119.7086 163.8435,118.5626 C162.0885,117.7986 160.7515,117.2476 160.3315,117.0756 C158.8285,116.4576 156.9445,115.6826 154.7965,114.9166 C152.8495,114.2216 150.7715,113.4796 148.0185,112.8226 C146.1345,112.3726 143.7065,111.8046 140.4455,111.6226 C138.6715,111.5226 135.8925,111.4956 132.5415,112.0206 C130.2305,112.3836 127.1645,112.8876 123.5505,114.6256 C119.9645,116.3506 117.6875,118.4006 117.1045,118.9386 C116.3845,119.6036 114.3125,121.5956 112.4235,124.7816 C110.7675,127.5746 109.9135,130.1706 109.4525,132.0336"/>
    <path stroke="#000" d="M109.4525,132.0336 C113.2185,132.0566 116.7005,132.1736 120.1715,132.0206 C120.8795,131.9906 121.7885,131.0806 122.1885,130.3466 C123.1305,128.6216 123.7425,127.9316 124.8185,126.4536 C125.7475,125.1776 126.6655,124.4466 127.7895,123.5516 C130.3715,121.4956 132.8295,120.6016 134.2855,120.0866 C136.9825,119.1306 139.7605,118.6376 142.8455,118.5296 C145.8245,118.4256 148.0085,118.8026 150.5935,119.2416 C153.7765,119.7826 156.0935,120.4626 159.1255,121.3646 C160.2025,121.6846 160.8845,121.9036 167.5845,124.1816 C175.1055,126.7386 174.9075,126.6866 175.7725,126.9516 C179.1325,127.9826 180.4465,128.3486 183.5885,129.4006 C184.8685,129.8286 186.1345,130.2956 187.3705,130.8406 C189.0985,131.6026 191.2605,132.3866 193.8085,132.9496 C197.0215,133.6596 199.8595,133.8016 202.0655,133.7466 C200.6945,133.3086 198.4975,132.5816 195.8295,131.5766 C193.4405,130.6766 191.5305,129.8366 188.8095,128.6586 C184.9735,126.9986 184.4065,126.6626 181.9905,125.7356 C180.7395,125.2556 179.5075,124.8136 177.7455,124.1826 C175.1065,123.2376 174.4915,123.0546 172.7895,122.3996 C171.1015,121.7506 169.8175,121.2046 169.0085,120.8596 C166.8335,119.9326 166.4745,119.7086 163.8435,118.5626 C162.0885,117.7986 160.7515,117.2476 160.3315,117.0756 C158.8285,116.4576 156.9445,115.6826 154.7965,114.9166 C152.8495,114.2216 150.7715,113.4796 148.0185,112.8226 C146.1345,112.3726 143.7065,111.8046 140.4455,111.6226 C138.6715,111.5226 135.8925,111.4956 132.5415,112.0206 C130.2305,112.3836 127.1645,112.8876 123.5505,114.6256 C119.9645,116.3506 117.6875,118.4006 117.1045,118.9386 C116.3845,119.6036 114.3125,121.5956 112.4235,124.7816 C110.7675,127.5746 109.9135,130.1706 109.4525,132.0336 Z"/>
    <path fill="#000" d="M185.4593,133.7303 C179.8203,131.0273 163.2503,123.4653 147.8603,122.2493 C142.3353,121.8123 138.1413,122.2853 134.0723,124.1733 C129.1053,126.4783 126.0773,130.0533 124.5503,132.1803 C125.5883,132.2333 126.7873,132.2763 128.1183,132.2883 C132.5413,132.3283 133.2603,131.9803 133.7343,131.6503 C134.5803,131.0603 134.5763,130.5723 135.9343,129.6103 C136.6023,129.1373 137.2433,128.8013 137.9983,128.4723 C138.7573,128.1413 141.4223,127.0323 144.2053,126.6083 C147.8413,126.0553 154.5183,126.2363 162.4653,128.5283 C168.2383,130.1933 173.3013,131.9683 173.3013,131.9683 C174.6253,132.4333 175.9973,132.9313 177.9563,133.3173 C181.0443,133.9253 183.6773,133.8763 185.4593,133.7303"/>
    <path stroke="#000" d="M185.4593,133.7303 C179.8203,131.0273 163.2503,123.4653 147.8603,122.2493 C142.3353,121.8123 138.1413,122.2853 134.0723,124.1733 C129.1053,126.4783 126.0773,130.0533 124.5503,132.1803 C125.5883,132.2333 126.7873,132.2763 128.1183,132.2883 C132.5413,132.3283 133.2603,131.9803 133.7343,131.6503 C134.5803,131.0603 134.5763,130.5723 135.9343,129.6103 C136.6023,129.1373 137.2433,128.8013 137.9983,128.4723 C138.7573,128.1413 141.4223,127.0323 144.2053,126.6083 C147.8413,126.0553 154.5183,126.2363 162.4653,128.5283 C168.2383,130.1933 173.3013,131.9683 173.3013,131.9683 C174.6253,132.4333 175.9973,132.9313 177.9563,133.3173 C181.0443,133.9253 183.6773,133.8763 185.4593,133.7303 Z"/>
    <path fill="#000" d="M105.7259,148.5453 C105.6619,144.2123 105.5959,139.8783 105.5309,135.5453 C112.8589,135.6053 122.8089,135.6793 134.6239,135.7513 C134.6239,135.7513 152.7889,135.9083 175.4779,135.9153 C190.3599,135.9193 205.1879,135.8413 205.1889,135.8413 C205.2259,135.8413 205.7919,135.8383 205.8299,135.8383 C206.1089,135.9033 206.3269,136.0033 206.4779,136.0853 C206.5919,136.1483 207.0229,136.3943 207.3879,136.9053 C207.4649,137.0143 207.6009,137.2063 207.7099,137.4943 C207.8709,137.9163 207.8729,138.2763 207.8699,138.4153 C207.8679,138.4953 207.8549,138.8273 207.7029,139.2323 C207.6399,139.3953 207.4079,139.9913 206.8319,140.4223 C206.2679,140.8453 205.6379,140.9113 204.5679,141.0223 C204.5679,141.0223 204.5669,141.0233 204.5639,141.0233 C204.5639,141.0233 204.4099,141.0363 204.2569,141.0493 C204.0219,141.0703 122.3189,141.0613 118.7309,140.6333 C118.5569,140.6123 117.7889,140.4983 116.9179,140.8253 C116.9179,140.8253 116.5469,140.9643 116.2029,141.1933 C114.7279,142.1753 114.1369,145.5833 111.9459,147.0143 C110.7719,147.7813 109.4229,148.0843 107.8319,148.3493 C106.9809,148.4913 106.2539,148.5343 105.7259,148.5453"/>
    <path stroke="#000" d="M105.7259,148.5453 C105.6619,144.2123 105.5959,139.8783 105.5309,135.5453 C112.8589,135.6053 122.8089,135.6793 134.6239,135.7513 C134.6239,135.7513 152.7889,135.9083 175.4779,135.9153 C190.3599,135.9193 205.1879,135.8413 205.1889,135.8413 C205.2259,135.8413 205.7919,135.8383 205.8299,135.8383 C206.1089,135.9033 206.3269,136.0033 206.4779,136.0853 C206.5919,136.1483 207.0229,136.3943 207.3879,136.9053 C207.4649,137.0143 207.6009,137.2063 207.7099,137.4943 C207.8709,137.9163 207.8729,138.2763 207.8699,138.4153 C207.8679,138.4953 207.8549,138.8273 207.7029,139.2323 C207.6399,139.3953 207.4079,139.9913 206.8319,140.4223 C206.2679,140.8453 205.6379,140.9113 204.5679,141.0223 C204.5679,141.0223 204.5669,141.0233 204.5639,141.0233 C204.5639,141.0233 204.4099,141.0363 204.2569,141.0493 C204.0219,141.0703 122.3189,141.0613 118.7309,140.6333 C118.5569,140.6123 117.7889,140.4983 116.9179,140.8253 C116.9179,140.8253 116.5469,140.9643 116.2029,141.1933 C114.7279,142.1753 114.1369,145.5833 111.9459,147.0143 C110.7719,147.7813 109.4229,148.0843 107.8319,148.3493 C106.9809,148.4913 106.2539,148.5343 105.7259,148.5453 Z"/>
  </g>
</svg>
