<svg xmlns="http://www.w3.org/2000/svg" width="200" height="200" viewBox="0 0 200 200">
  <g fill="none" fill-rule="evenodd">
    <path fill="#735DD0" d="M94.0821137,45.995172 L155.309419,31.1941609 C157.456708,30.6750781 159.618229,31.9949997 160.137311,34.1422882 C160.211708,34.4500459 160.249302,34.7655485 160.249302,35.0821708 L160.249302,160.503409 C160.249302,162.350505 158.984566,163.957406 157.189184,164.391419 L43.9398826,191.768161 C41.792594,192.287244 39.6310729,190.967323 39.1119901,188.820034 C39.0375932,188.512276 39,188.196774 39,187.880152 L39,115.97935 C39,82.7316275 61.7652457,53.8074107 94.0821137,45.995172 Z"/>
    <path fill="#FFF" stroke="#735DD0" stroke-width="17" d="M47.5,166.139314 C55.0134584,160.028509 62.7399979,155.30528 70.683602,151.995324 C81.6718385,147.416724 94.1959026,145.073781 108.223911,144.913436 L108.223911,18.6591167 L81.1312886,29.9481237 C60.7657706,38.4340676 47.5,58.3330044 47.5,80.3957686 L47.5,166.139314 Z"/>
  </g>
</svg>
